Model Marker Locations from IK
version=1
nRows=5
nColumns=118
inDegrees=no
endheader
time	R.Heel_tx	R.Heel_ty	R.Heel_tz	R.Midfoot.Superior_tx	R.Midfoot.Superior_ty	R.Midfoot.Superior_tz	R.Midfoot.Lateral_tx	R.Midfoot.Lateral_ty	R.Midfoot.Lateral_tz	R.Toe_tx	R.Toe_ty	R.Toe_tz	L.Heel_tx	L.Heel_ty	L.Heel_tz	L.Midfoot.Superior_tx	L.Midfoot.Superior_ty	L.Midfoot.Superior_tz	L.Midfoot.Lateral_tx	L.Midfoot.Lateral_ty	L.Midfoot.Lateral_tz	L.Toe_tx	L.Toe_ty	L.Toe_tz	R.Shank.Superior_tx	R.Shank.Superior_ty	R.Shank.Superior_tz	R.Shank.Inferior_tx	R.Shank.Inferior_ty	R.Shank.Inferior_tz	R.Shank.Lateral_tx	R.Shank.Lateral_ty	R.Shank.Lateral_tz	R.Shank.Posterior_tx	R.Shank.Posterior_ty	R.Shank.Posterior_tz	L.Shank.Superior_tx	L.Shank.Superior_ty	L.Shank.Superior_tz	L.Shank.Inferior_tx	L.Shank.Inferior_ty	L.Shank.Inferior_tz	L.Shank.Posterior_tx	L.Shank.Posterior_ty	L.Shank.Posterior_tz	L.Shank.Lateral_tx	L.Shank.Lateral_ty	L.Shank.Lateral_tz	R.Patella_tx	R.Patella_ty	R.Patella_tz	L.Patella_tx	L.Patella_ty	L.Patella_tz	R.Thigh.Superior_tx	R.Thigh.Superior_ty	R.Thigh.Superior_tz	R.Thigh.Lateral_tx	R.Thigh.Lateral_ty	R.Thigh.Lateral_tz	R.Thigh.Inferior_tx	R.Thigh.Inferior_ty	R.Thigh.Inferior_tz	L.Thigh.Superior_tx	L.Thigh.Superior_ty	L.Thigh.Superior_tz	L.Thigh.Inferior_tx	L.Thigh.Inferior_ty	L.Thigh.Inferior_tz	L.Thigh.Lateral_tx	L.Thigh.Lateral_ty	L.Thigh.Lateral_tz	L.ASIS_tx	L.ASIS_ty	L.ASIS_tz	R.ASIS_tx	R.ASIS_ty	R.ASIS_tz	Sacral_tx	Sacral_ty	Sacral_tz	R.Shoulder_tx	R.Shoulder_ty	R.Shoulder_tz	L.Shoulder_tx	L.Shoulder_ty	L.Shoulder_tz	C7_tx	C7_ty	C7_tz	J.Notch_tx	J.Notch_ty	J.Notch_tz	Sternum_tx	Sternum_ty	Sternum_tz	Thoracic_tx	Thoracic_ty	Thoracic_tz	L.Elbow_tx	L.Elbow_ty	L.Elbow_tz	L.Wrist_tx	L.Wrist_ty	L.Wrist_tz	R.Elbow_tx	R.Elbow_ty	R.Elbow_tz	R.Wrist_tx	R.Wrist_ty	R.Wrist_tz	R.PSIS_tx	R.PSIS_ty	R.PSIS_tz	L.PSIS_tx	L.PSIS_ty	L.PSIS_tz
      1.27833766	      0.48689455	      0.52594732	      0.00177614	      0.56951855	      0.37522878	      0.03483654	      0.49093788	      0.45611329	      0.06708848	      0.55355958	      0.25291041	      0.06062507	      0.65387769	      0.04240572	     -0.09442054	      0.81686695	      0.09481971	     -0.14192695	      0.72259399	      0.02735245	     -0.16251493	      0.93261726	      0.05643952	     -0.16463343	      0.80942772	      0.49145233	      0.08504852	      0.69325242	      0.46480565	      0.06498177	      0.71880701	      0.54119075	      0.12911931	      0.76644319	      0.62280444	      0.08345278	      0.77981099	      0.35258844	     -0.14714081	      0.76209037	      0.23820181	     -0.14362001	      0.62988041	      0.34184237	     -0.14042272	      0.69751351	      0.27933804	     -0.19527550	      0.90898159	      0.51181401	      0.08507197	      0.79731847	      0.46574272	     -0.14925081	      0.87448372	      0.85116185	      0.05864134	      0.84573580	      0.76139187	      0.13473395	      0.94458110	      0.70485530	      0.05052353	      0.85428982	      0.76986750	     -0.18225353	      0.83084963	      0.60621727	     -0.16884032	      0.75179975	      0.70207388	     -0.23525108	      0.83794842	      0.95512440	     -0.16666716	      0.82469944	      0.94851125	      0.07650583	      0.64069264	      0.98186120	     -0.05004976	      0.74338732	      1.43242356	      0.08564812	      0.75716437	      1.42535767	     -0.23607442	      0.71969487	      1.47346282	     -0.07338864	      0.84816547	      1.37961246	     -0.06896282	      0.90270719	      1.19405396	     -0.06746347	      0.63720321	      1.32652461	     -0.07457298	      0.75020281	      1.19116214	     -0.40996845	      0.90839079	      0.98152531	     -0.45233870	      0.67019252	      1.19070153	      0.25254053	      0.73928224	      0.97242564	      0.39014879	      0.63965167	      0.98456434	     -0.01342511	      0.63984891	      0.98488551	     -0.08768170
      1.28499567	      0.48734862	      0.52753276	      0.00139940	      0.56933425	      0.37647709	      0.03451034	      0.49105644	      0.45767639	      0.06670775	      0.55285875	      0.25422187	      0.06027349	      0.65389005	      0.04240633	     -0.09439430	      0.81687047	      0.09481364	     -0.14193841	      0.72259058	      0.02734916	     -0.16250374	      0.93261436	      0.05642895	     -0.16466995	      0.80960577	      0.49203710	      0.08505726	      0.69337812	      0.46573383	      0.06484114	      0.71907609	      0.54203284	      0.12902385	      0.76700767	      0.62351467	      0.08343100	      0.77979196	      0.35259230	     -0.14712781	      0.76207946	      0.23820433	     -0.14360960	      0.62986411	      0.34183653	     -0.14036443	      0.69748420	      0.27934022	     -0.19524236	      0.90921350	      0.51211685	      0.08521966	      0.79729062	      0.46574482	     -0.14923194	      0.87454153	      0.85131238	      0.05874180	      0.84586636	      0.76152454	      0.13484079	      0.94480398	      0.70508218	      0.05067560	      0.85428853	      0.76985598	     -0.18223630	      0.83083129	      0.60620812	     -0.16882395	      0.75177617	      0.70207747	     -0.23521007	      0.83792682	      0.95515847	     -0.16663967	      0.82474814	      0.94853047	      0.07653673	      0.64069473	      0.98182407	     -0.04996590	      0.74334401	      1.43242550	      0.08567824	      0.75701279	      1.42534544	     -0.23604860	      0.71958897	      1.47345154	     -0.07335259	      0.84808018	      1.37962757	     -0.06896563	      0.90266018	      1.19408026	     -0.06747510	      0.63712683	      1.32649648	     -0.07450106	      0.75012276	      1.19112209	     -0.40990839	      0.90836143	      0.98153674	     -0.45233730	      0.67013848	      1.19071211	      0.25257837	      0.73927835	      0.97242259	      0.39014708	      0.63966311	      0.98452529	     -0.01334084	      0.63983945	      0.98484970	     -0.08759748
      1.29165368	      0.48777663	      0.52885744	      0.00106082	      0.56925040	      0.37753563	      0.03421993	      0.49119389	      0.45897252	      0.06635448	      0.55236220	      0.25532610	      0.05993261	      0.65388644	      0.04238307	     -0.09438002	      0.81685641	      0.09480946	     -0.14193892	      0.72258405	      0.02733121	     -0.16249358	      0.93260379	      0.05643896	     -0.16467666	      0.80979866	      0.49254615	      0.08509010	      0.69353254	      0.46652524	      0.06473025	      0.71933652	      0.54275444	      0.12895337	      0.76751923	      0.62412610	      0.08342853	      0.77977821	      0.35257973	     -0.14711532	      0.76206591	      0.23819165	     -0.14359954	      0.62985137	      0.34182409	     -0.14032923	      0.69746279	      0.27933006	     -0.19522045	      0.90945032	      0.51239394	      0.08538504	      0.79727722	      0.46573315	     -0.14921800	      0.87461242	      0.85145706	      0.05885291	      0.84599285	      0.76165433	      0.13495527	      0.94502519	      0.70529597	      0.05084521	      0.85425497	      0.76985123	     -0.18221585	      0.83080831	      0.60620146	     -0.16880826	      0.75173714	      0.70207032	     -0.23517597	      0.83785700	      0.95515959	     -0.16667098	      0.82484761	      0.94855037	      0.07651505	      0.64070093	      0.98180059	     -0.04986320	      0.74327756	      1.43242481	      0.08570687	      0.75686724	      1.42533941	     -0.23602320	      0.71947294	      1.47344103	     -0.07331908	      0.84798734	      1.37964744	     -0.06896188	      0.90261142	      1.19411303	     -0.06748014	      0.63704513	      1.32646652	     -0.07444294	      0.75013813	      1.19115197	     -0.40978489	      0.90829649	      0.98154687	     -0.45231833	      0.67014876	      1.19074581	      0.25254595	      0.73927074	      0.97247378	      0.39014903	      0.63969416	      0.98450481	     -0.01323766	      0.63981910	      0.98482281	     -0.08749443
      1.29831169	      0.48820691	      0.52990503	      0.00076116	      0.56925941	      0.37836877	      0.03397331	      0.49138475	      0.46000291	      0.06604850	      0.55203227	      0.25619992	      0.05965440	      0.65389238	      0.04237902	     -0.09436696	      0.81685723	      0.09480672	     -0.14194195	      0.72258745	      0.02732029	     -0.16248157	      0.93260553	      0.05643885	     -0.16467944	      0.81001951	      0.49297977	      0.08513556	      0.69372969	      0.46716882	      0.06464431	      0.71959872	      0.54334736	      0.12890135	      0.76797806	      0.62463546	      0.08343580	      0.77975861	      0.35258223	     -0.14710764	      0.76205302	      0.23819307	     -0.14359344	      0.62983385	      0.34181851	     -0.14028870	      0.69743628	      0.27933063	     -0.19519798	      0.90970339	      0.51265535	      0.08555098	      0.79725066	      0.46573504	     -0.14920697	      0.87466236	      0.85160031	      0.05895802	      0.84609838	      0.76178223	      0.13506314	      0.94522994	      0.70551053	      0.05101196	      0.85423537	      0.76984711	     -0.18220582	      0.83078323	      0.60619806	     -0.16879903	      0.75170374	      0.70207305	     -0.23514798	      0.83781996	      0.95517653	     -0.16667442	      0.82491574	      0.94855885	      0.07651698	      0.64070937	      0.98178111	     -0.04978161	      0.74322253	      1.43243062	      0.08572527	      0.75673533	      1.42533167	     -0.23600775	      0.71937040	      1.47343362	     -0.07329697	      0.84790589	      1.37966771	     -0.06896630	      0.90256996	      1.19414505	     -0.06748839	      0.63697372	      1.32644145	     -0.07439325	      0.75006713	      1.19111121	     -0.40972969	      0.90827231	      0.98155373	     -0.45230037	      0.67011925	      1.19075537	      0.25256824	      0.73926668	      0.97247896	      0.39014601	      0.63971780	      0.98448421	     -0.01315558	      0.63981092	      0.98480414	     -0.08741238
      1.30496970	      0.48863401	      0.53067783	      0.00050657	      0.56936888	      0.37898447	      0.03377516	      0.49161488	      0.46075903	      0.06578534	      0.55188695	      0.25684384	      0.05941828	      0.65390345	      0.04238899	     -0.09436850	      0.81687456	      0.09480074	     -0.14193963	      0.72261064	      0.02730165	     -0.16246455	      0.93262807	      0.05642659	     -0.16463995	      0.81026874	      0.49333966	      0.08520913	      0.69396964	      0.46766850	      0.06459523	      0.71986243	      0.54381812	      0.12887699	      0.76838826	      0.62504600	      0.08345996	      0.77972633	      0.35259712	     -0.14710931	      0.76203561	      0.23820564	     -0.14359553	      0.62980466	      0.34181480	     -0.14025174	      0.69740040	      0.27933758	     -0.19518140	      0.90997381	      0.51289999	      0.08573612	      0.79720264	      0.46574869	     -0.14920439	      0.87470746	      0.85174175	      0.05905800	      0.84619189	      0.76191264	      0.13516826	      0.94542856	      0.70572218	      0.05118679	      0.85420563	      0.76984670	     -0.18221109	      0.83074088	      0.60619970	     -0.16880142	      0.75165670	      0.70208291	     -0.23513289	      0.83778460	      0.95519751	     -0.16668881	      0.82499066	      0.94855506	      0.07650774	      0.64072446	      0.98177362	     -0.04970451	      0.74318078	      1.43244139	      0.08573722	      0.75662046	      1.42532843	     -0.23599854	      0.71928383	      1.47343151	     -0.07328161	      0.84783861	      1.37969090	     -0.06897586	      0.90253922	      1.19417899	     -0.06750101	      0.63691557	      1.32642321	     -0.07435120	      0.74993418	      1.19102147	     -0.40974769	      0.90830177	      0.98156477	     -0.45228460	      0.67004908	      1.19074213	      0.25264827	      0.73926423	      0.97244092	      0.39015849	      0.63974918	      0.98447308	     -0.01307777	      0.63980878	      0.98480024	     -0.08733458
